<svg class="icon-customization" width="100" height="100" viewBox="0 0 90 50" fill="none" xmlns="http://www.w3.org/2000/svg">
    <g id="customization">
        <path class="icon-rect" d="M42 31C42 40.9411 50.0589 49 60 49L87 49C89.7614 49 92 46.7614 92 44L92 10C92 4.47715 87.5228 -1.65037e-07 82 3.17786e-07L47 3.37758e-06C44.2386 3.61899e-06 42 2.23858 42 5L42 31Z" fill="#FFF1DA" />

        <g id="setting">
            <g id="Group">
                <path id="Vector" d="M50 34.8482V29.1518C50 28.0351 49.0947 27.1299 47.9781 27.1299H45.7994C44.9282 27.1299 44.1553 26.5717 43.8815 25.7448C43.5764 24.8235 43.2058 23.9322 42.7752 23.0763C42.3831 22.2967 42.5332 21.3542 43.1502 20.7371L44.6916 19.1957C45.4813 18.406 45.4813 17.1259 44.6916 16.3362L40.6637 12.3082C39.874 11.5186 38.5938 11.5186 37.8042 12.3082L36.2628 13.8497C35.6457 14.4668 34.7032 14.6168 33.9236 14.2246C33.0677 13.7941 32.1763 13.4234 31.2551 13.1184C30.4282 12.8446 29.87 12.0716 29.87 11.2005V9.02193C29.87 7.90523 28.9648 7 27.8481 7H22.1517C21.035 7 20.1298 7.90523 20.1298 9.02193V11.2006C20.1298 12.0717 19.5716 12.8447 18.7446 13.1185C17.8234 13.4235 16.9321 13.7942 16.0761 14.2247C15.2966 14.6169 14.3541 14.4668 13.737 13.8498L12.1956 12.3083C11.4059 11.5187 10.1257 11.5187 9.3361 12.3083L5.30833 16.3363C4.51869 17.126 4.51869 18.4061 5.30833 19.1958L6.84978 20.7372C7.46678 21.3543 7.61688 22.2968 7.22473 23.0764C6.79415 23.9323 6.42352 24.8236 6.11849 25.7449C5.92493 26.3293 5.48218 26.7794 4.93167 26.9932C4.7032 27.0819 4.55672 27.2305 4.30119 27.2305H2.12252C1.00582 27.2305 0.100586 28.1357 0.100586 29.2524V34.7476C0.100586 35.8643 1.00582 36.7695 2.12252 36.7695H4.30119C5.17232 36.7695 5.94525 37.4283 6.2191 38.2552C6.52413 39.1765 6.89475 40.0677 7.32533 40.9237C7.71749 41.7033 7.56739 42.6458 6.95038 43.2629L5.50954 44.8043C4.7199 45.594 4.7199 46.8741 5.50954 47.6638L9.3363 51.4905C10.1259 52.2802 11.4061 52.2802 12.1958 51.4905L13.7372 49.9491C14.3542 49.332 15.2968 49.182 16.0763 49.5741C16.9323 50.0047 18.0248 50.476 18.9461 50.781C19.773 51.0548 20.3312 51.8278 20.3312 52.6989V54.8776C20.3312 55.9943 21.2364 56.8995 22.3531 56.8995H27.7477C28.8644 56.8995 29.7696 55.9943 29.7696 54.8776V52.6989C29.7696 52.4434 29.9182 52.2969 30.0069 52.0684C30.2207 51.5179 30.6709 51.0751 31.2552 50.8816C32.1764 50.5766 33.0678 50.2059 33.9237 49.7754C34.7033 49.3832 35.6458 49.5333 36.2629 50.1503L37.8043 51.6917C38.5939 52.4814 39.8741 52.4814 40.6638 51.6917L44.6917 47.6638C45.4814 46.8741 45.4814 45.594 44.6917 44.8043L43.1503 43.2629C42.5333 42.6458 42.3832 41.7033 42.7753 40.9237C43.2059 40.0678 43.5765 39.1765 43.8816 38.2552C44.1554 37.4283 44.9284 36.8701 45.7995 36.8701H47.9781C49.0947 36.8701 50 35.9649 50 34.8482Z" fill="#B6C4CF" />
                <path id="Vector_2" d="M30.007 52.0684C29.9185 52.2967 29.8702 52.5442 29.8702 52.7998V54.9778C29.8702 56.0945 28.9648 57 27.8481 57H22.1519C21.0352 57 20.1298 56.0945 20.1298 54.9778V52.7998C20.1298 51.9285 19.5714 51.1549 18.7445 50.8812C17.8239 50.5764 16.9326 50.2062 16.0765 49.7756C15.2968 49.3833 14.3541 49.5332 13.7374 50.1499L12.1962 51.6911C11.4064 52.4808 10.1258 52.4808 9.33602 51.6911L5.30785 47.6639C4.51911 46.8742 4.51911 45.5935 5.30785 44.8038L6.8501 43.2625C7.4668 42.6458 7.6167 41.7032 7.22435 40.9235C6.79376 40.0674 6.42354 39.176 6.11871 38.2555C5.84507 37.4285 5.07143 36.8702 4.2002 36.8702H2.02213C0.905433 36.8702 0 35.9648 0 34.8481V29.1519C0 28.0352 0.905433 27.1297 2.02213 27.1297H4.2002C4.45573 27.1297 4.70322 27.0815 4.93159 26.9929C4.92958 27.1187 4.92857 27.2454 4.92857 27.3722C4.92857 41.013 15.9869 52.0714 29.6278 52.0714C29.7545 52.0714 29.8813 52.0704 30.007 52.0684Z" fill="#9FACBA" />
                <path id="Vector_3" d="M25 48.5996C34.1677 48.5996 41.5996 41.1677 41.5996 32C41.5996 22.8323 34.1677 15.4004 25 15.4004C15.8323 15.4004 8.40039 22.8323 8.40039 32C8.40039 41.1677 15.8323 48.5996 25 48.5996Z" fill="#9FACBA" />
                <path id="Vector_4" d="M24.9999 45.0784C32.2229 45.0784 38.0783 39.223 38.0783 32C38.0783 24.7769 32.2229 18.9215 24.9999 18.9215C17.7768 18.9215 11.9214 24.7769 11.9214 32C11.9214 39.223 17.7768 45.0784 24.9999 45.0784Z" fill="#F8F7F7" />
            </g>
        </g>
    </g>
</svg>