<svg width="422" height="426" viewBox="0 0 422 426" fill="none" xmlns="http://www.w3.org/2000/svg">
<path d="M247.144 249.331C243.883 249.617 240.827 250.69 238.166 252.482C231.21 257 227.927 264.658 230.833 269.584C233.739 274.511 241.733 274.839 248.689 270.32C251.403 268.619 253.681 266.228 255.382 263.295C256.161 261.87 256.04 259.896 255.074 258.262L251.299 251.862C250.337 250.224 248.707 249.231 247.144 249.331Z" fill="#D5D6DB"/>
<path d="M215.23 165.535C212.865 165.744 210.649 166.522 208.72 167.821C203.677 171.097 201.295 176.649 203.4 180.218C205.506 183.787 211.304 184.025 216.346 180.75C218.314 179.515 219.965 177.78 221.199 175.653C221.763 174.621 221.676 173.191 220.975 172.006L218.241 167.372C217.545 166.184 216.363 165.464 215.23 165.535Z" fill="#D5D6DB"/>
<path d="M183.678 163.067C183.118 162.895 182.56 162.962 182.111 163.255L170.267 170.95C169.276 171.591 169.075 173.136 169.819 174.402C169.99 174.692 170.202 174.952 170.444 175.166L207.526 208.156L247.019 182.496L183.678 163.067Z" fill="#029BC5"/>
<path d="M324.159 184.887L216.513 253.602L149.826 274.496L114.5 276.486L109.234 267.62L289.106 155.991C294.464 152.646 300.77 151.14 307.386 151.629C310.286 151.861 313.213 152.507 316.099 153.548C318.655 154.448 321.145 155.74 323.496 157.387C326.124 159.247 330.739 160.245 332.656 163.346C332.66 163.343 338.142 176.978 324.159 184.887Z" fill="#E1E6E9"/>
<path d="M216.299 241.882L178.868 331.79C178.424 333.068 179.051 334.703 180.268 335.442C181.015 335.896 181.848 335.921 182.482 335.511L194.324 327.867C196.602 326.396 198.505 324.348 199.917 321.849L280.194 198.123L216.299 241.882Z" fill="#029BC5"/>
<path d="M83.2333 214.47C82.303 213.955 81.2882 213.95 80.509 214.456L70.7254 220.807C69.3922 221.672 69.1243 223.751 70.1268 225.452C70.3177 225.775 70.5468 226.071 70.8065 226.328L106.247 261.41L135.14 243.175L83.2333 214.47Z" fill="#029BC5"/>
<path d="M117.433 268.606L104.975 293.299C104.791 293.653 104.925 294.164 105.273 294.439C105.524 294.637 105.83 294.666 106.052 294.511L115.201 288.615C115.272 288.569 115.333 288.506 115.38 288.431L134.394 257.691L117.433 268.606Z" fill="#029BC5"/>
<path d="M314.288 154.381C311.316 153.305 308.301 152.642 305.315 152.408C303.105 156.777 302.053 161.945 302.265 167.396C302.388 168.506 303.269 169.449 304.233 169.502C304.533 169.519 304.818 169.446 305.06 169.292L321.91 158.357C319.486 156.649 316.92 155.31 314.288 154.381Z" fill="#029BC5"/>
<path d="M276.824 173.312L287.837 166.249L302.964 191.735L291.951 198.798L276.824 173.312Z" fill="#D5D6DB"/>
<path d="M270.408 181.138C269.082 181.993 268.812 184.049 269.807 185.732L271.418 188.458C272.457 190.11 274.347 190.711 275.64 189.8C276.87 188.931 277.125 186.994 276.221 185.364L274.609 182.638C273.615 180.957 271.735 180.286 270.408 181.138Z" fill="#3A556A"/>
<path d="M260.489 187.346C259.162 188.201 258.892 190.258 259.887 191.94L261.499 194.666C262.538 196.318 264.428 196.919 265.721 196.008C266.951 195.14 267.205 193.202 266.301 191.572L264.69 188.847C263.695 187.166 261.815 186.494 260.489 187.346Z" fill="#3A556A"/>
<path d="M250.566 193.557C249.242 194.413 248.974 196.467 249.968 198.148L251.579 200.874C252.618 202.526 254.508 203.127 255.801 202.216C257.031 201.348 257.286 199.41 256.382 197.781L254.77 195.055C253.775 193.373 251.893 192.702 250.566 193.557Z" fill="#3A556A"/>
<path d="M240.647 199.764C239.322 200.621 239.054 202.675 240.048 204.356L241.66 207.082C242.699 208.734 244.588 209.335 245.881 208.424C247.112 207.556 247.366 205.618 246.462 203.989L244.85 201.263C243.855 199.581 241.973 198.91 240.647 199.764Z" fill="#3A556A"/>
<path d="M230.728 205.973C229.403 206.83 229.135 208.885 230.129 210.567L231.742 213.294C232.736 214.975 234.617 215.646 235.943 214.792C237.269 213.938 237.539 211.883 236.544 210.201L234.932 207.474C233.939 205.792 232.059 205.12 230.731 205.972C230.73 205.972 230.73 205.973 230.728 205.973Z" fill="#3A556A"/>
<path d="M220.809 212.182C219.484 213.038 219.216 215.094 220.21 216.775L221.823 219.502C222.817 221.184 224.698 221.854 226.024 221C227.35 220.146 227.619 218.091 226.625 216.41L225.013 213.683C224.02 212 222.139 211.328 220.812 212.18C220.811 212.181 220.81 212.181 220.809 212.182Z" fill="#3A556A"/>
<path d="M210.889 218.39C209.564 219.246 209.295 221.302 210.29 222.984L211.903 225.71C212.898 227.39 214.78 228.058 216.104 227.202C217.426 226.347 217.695 224.297 216.704 222.618L215.092 219.891C214.098 218.209 212.217 217.537 210.889 218.39Z" fill="#3A556A"/>
<path d="M200.969 224.598C199.644 225.455 199.376 227.51 200.37 229.192L201.983 231.919C202.978 233.599 204.86 234.266 206.184 233.41C207.506 232.556 207.775 230.505 206.785 228.826L205.172 226.099C204.178 224.417 202.297 223.745 200.969 224.598Z" fill="#3A556A"/>
<path d="M191.05 230.806C189.725 231.663 189.457 233.718 190.451 235.4L192.064 238.127C193.059 239.807 194.941 240.474 196.265 239.618C197.587 238.764 197.856 236.713 196.866 235.034L195.253 232.308C194.259 230.626 192.377 229.954 191.05 230.806Z" fill="#3A556A"/>
<path d="M181.128 237.016C179.801 237.87 179.532 239.925 180.526 241.606L180.528 241.61L182.141 244.337C183.137 246.017 185.018 246.684 186.343 245.828C187.665 244.974 187.933 242.923 186.943 241.244L185.33 238.517C184.336 236.835 182.455 236.163 181.128 237.016Z" fill="#3A556A"/>
<path d="M171.211 243.222C169.885 244.076 169.615 246.131 170.609 247.813L170.612 247.816L172.224 250.543C173.22 252.223 175.101 252.89 176.426 252.034C177.748 251.18 178.016 249.129 177.026 247.451L175.414 244.724C174.419 243.042 172.538 242.37 171.211 243.222Z" fill="#3A556A"/>
</svg>
