<svg width="175" height="163" viewBox="0 0 175 163" fill="none" xmlns="http://www.w3.org/2000/svg">
<path d="M100.926 92.1888C99.508 92.509 98.1265 93.102 96.8677 93.9306C93.5881 96.0366 91.68 99.0429 92.6062 100.645C93.5323 102.246 96.9417 101.837 100.221 99.7307C101.497 98.9314 102.63 97.9098 103.552 96.7291C103.979 96.1587 104.056 95.4479 103.747 94.9165L102.544 92.8357C102.238 92.3026 101.603 92.0492 100.926 92.1888Z" fill="#D5D6DB"/>
<path d="M92.691 63.7832C91.6625 64.0156 90.6607 64.4458 89.7478 65.0467C87.3703 66.5734 85.986 68.7532 86.657 69.9137C87.328 71.0742 89.8011 70.7769 92.1783 69.2503C93.1033 68.6704 93.9251 67.9293 94.5931 67.0731C94.9027 66.6596 94.9582 66.1446 94.7348 65.7594L93.8636 64.2527C93.6419 63.8663 93.1818 63.6821 92.691 63.7832Z" fill="#D5D6DB"/>
<path d="M79.3103 64.9728C79.0814 64.9471 78.8372 65.0085 78.6255 65.1448L73.041 68.7314C72.5739 69.0305 72.3869 69.6064 72.6239 70.0181C72.6781 70.1124 72.7522 70.193 72.8423 70.2551L86.6065 79.8154L105.228 67.856L79.3103 64.9728Z" fill="#029BC5"/>
<path d="M138.178 63.621L87.5019 95.7718L57.5203 107.795L42.23 110.858L40.5479 107.978L125.018 55.4175C127.535 53.8444 130.34 52.8788 133.147 52.6188C134.377 52.5116 135.591 52.5528 136.762 52.7409C137.8 52.8995 138.784 53.2054 139.686 53.6496C140.693 54.1529 142.608 54.2109 143.229 55.2136C143.231 55.212 144.695 59.8153 138.178 63.621Z" fill="#E1E6E9"/>
<path d="M88.1738 91.5177L66.2506 126.739C65.9768 127.234 66.1394 127.788 66.6133 127.976C66.9042 128.092 67.2602 128.046 67.5592 127.855L73.1394 124.287C74.2127 123.601 75.163 122.729 75.9317 121.726L118.447 71.3517L88.1738 91.5177Z" fill="#029BC5"/>
<path d="M32.8526 90.3417C32.4869 90.2158 32.0517 90.2811 31.6844 90.5169L27.0716 93.4775C26.4431 93.8806 26.1927 94.6556 26.512 95.2087C26.5729 95.3139 26.6519 95.4065 26.7467 95.4827L39.6704 105.914L53.2585 97.3603L32.8526 90.3417Z" fill="#029BC5"/>
<path d="M44.0023 107.794L37.0464 117.612C36.9445 117.753 36.9684 117.93 37.1 118.007C37.1948 118.063 37.3243 118.053 37.4296 117.982L41.7402 115.229C41.7737 115.208 41.804 115.181 41.8291 115.15L51.9928 102.696L44.0023 107.794Z" fill="#029BC5"/>
<path d="M135.93 53.1642C134.725 52.9691 133.474 52.9274 132.207 53.0396C130.974 54.7771 130.186 56.7289 129.922 58.7003C129.902 59.0963 130.219 59.3814 130.629 59.337C130.757 59.323 130.884 59.2779 130.998 59.2055L138.942 54.1077C138.013 53.6462 136.999 53.3285 135.93 53.1642Z" fill="#029BC5"/>
<path d="M118.618 62.5385L123.805 59.2373L128.636 67.5181L123.449 70.8192L118.618 62.5385Z" fill="#D5D6DB"/>
<path d="M115.355 65.8135C114.73 66.2125 114.48 66.9794 114.797 67.5264L115.311 68.4124C115.649 68.9454 116.421 69.0391 117.036 68.6216C117.62 68.2241 117.856 67.5015 117.574 66.9679L117.06 66.0819C116.743 65.5354 115.98 65.4152 115.355 65.8135Z" fill="#3A556A"/>
<path d="M110.693 68.731C110.068 69.13 109.818 69.897 110.136 70.4439L110.65 71.3299C110.988 71.8629 111.76 71.9566 112.374 71.5391C112.959 71.1416 113.194 70.419 112.912 69.8854L112.398 68.9994C112.081 68.4531 111.318 68.3329 110.693 68.731Z" fill="#3A556A"/>
<path d="M106.03 71.6495C105.406 72.049 105.157 72.815 105.474 73.3615L105.988 74.2475C106.326 74.7804 107.098 74.8741 107.712 74.4567C108.297 74.0591 108.532 73.3366 108.25 72.803L107.736 71.917C107.419 71.3701 106.655 71.2504 106.03 71.6495Z" fill="#3A556A"/>
<path d="M101.368 74.567C100.744 74.9665 100.495 75.7325 100.812 76.2789L101.326 77.165C101.664 77.6979 102.436 77.7917 103.05 77.3742C103.635 76.9766 103.87 76.254 103.588 75.7205L103.074 74.8344C102.757 74.2877 101.993 74.168 101.368 74.567Z" fill="#3A556A"/>
<path d="M96.707 77.4847C96.0823 77.8844 95.8333 78.6508 96.1505 79.1974L96.6649 80.0838C96.982 80.6303 97.7455 80.75 98.3703 80.3511C98.9952 79.9523 99.2446 79.186 98.9275 78.6396L98.4132 77.7532C98.0969 77.2062 97.3336 77.0858 96.7083 77.4839C96.7078 77.4842 96.7075 77.4844 96.707 77.4847Z" fill="#3A556A"/>
<path d="M92.0451 80.4023C91.4205 80.802 91.1714 81.5683 91.4886 82.115L92.003 83.0014C92.3201 83.5478 93.0837 83.6675 93.7085 83.2687C94.3333 82.8699 94.5828 82.1036 94.2657 81.5571L93.7513 80.6707C93.435 80.1238 92.6717 80.0033 92.0465 80.4014C92.0459 80.4018 92.0454 80.4021 92.0451 80.4023Z" fill="#3A556A"/>
<path d="M87.3833 83.3199C86.7586 83.7195 86.5095 84.4859 86.8268 85.0325L87.3411 85.9189C87.659 86.4648 88.4229 86.5833 89.0471 86.184C89.6702 85.7853 89.9191 85.0206 89.6035 84.4749L89.0891 83.5885C88.7722 83.0416 88.0086 82.9213 87.3833 83.3199Z" fill="#3A556A"/>
<path d="M82.7214 86.2374C82.0967 86.6371 81.8477 87.4035 82.1649 87.9502L82.6792 88.8366C82.9971 89.3825 83.7611 89.501 84.3852 89.1016C85.0083 88.703 85.2572 87.9383 84.9416 87.3925L84.4272 86.5061C84.1103 85.9592 83.3467 85.8389 82.7214 86.2374Z" fill="#3A556A"/>
<path d="M78.0598 89.155C77.4351 89.5546 77.186 90.3209 77.5033 90.8676L78.0176 91.754C78.3355 92.2999 79.0994 92.4184 79.7236 92.019C80.3467 91.6204 80.5956 90.8557 80.28 90.3099L79.7656 89.4236C79.4484 88.8769 78.6848 88.7566 78.0598 89.155Z" fill="#3A556A"/>
<path d="M73.3964 92.0733C72.7716 92.4721 72.5222 93.2384 72.8393 93.7848L72.8399 93.786L73.3543 94.6724C73.6722 95.2184 74.4361 95.3368 75.0603 94.9375C75.6833 94.5388 75.9323 93.7741 75.6166 93.2283L75.1023 92.3419C74.7853 91.7951 74.0218 91.6748 73.3964 92.0733Z" fill="#3A556A"/>
<path d="M68.7361 94.99C68.1112 95.3888 67.8618 96.1551 68.1789 96.7015L68.1795 96.7027L68.6939 97.5891C69.0118 98.135 69.7757 98.2535 70.3999 97.8541C71.023 97.4555 71.2719 96.6908 70.9563 96.145L70.4419 95.2586C70.1247 94.712 69.3611 94.5917 68.7361 94.99Z" fill="#3A556A"/>
</svg>
