  <svg width="92" height="77" viewBox="0 0 92 77" fill="none" xmlns="http://www.w3.org/2000/svg">
    <g id="calculatedWeather">
      <path id="Rectangle 157" d="M92 59C92 68.9411 83.9411 77 74 77L47 77C44.2386 77 42 74.7614 42 72L42 38C42 32.4772 46.4772 28 52 28L87 28C89.7614 28 92 30.2386 92 33L92 59Z" fill="#FFF1DA" />
      <g id="satellite-dish">
        <g id="Group">
          <path id="Vector" d="M23.527 49.6574L21.6389 48.7535L10.4222 65.3382H22.9402L24.1464 64.5516V50.225L23.527 49.6574Z" fill="#407093" />
          <path id="Vector_2" d="M21.8095 48.8353L17.5644 46.803H16.7644L4.76062 64.5516L5.47525 65.3382H10.6483L21.8095 48.8353Z" fill="#365E7D" />
          <path id="Vector_3" d="M26.4 64.5515H9.84754C9.09559 64.5515 8.48596 65.161 8.48596 65.9131V67.6385C8.48596 68.3903 9.09545 68.9998 9.84727 68.9999H26.4C27.152 68.9999 27.7616 68.3904 27.7616 67.6385V65.9131C27.7616 65.161 27.152 64.5515 26.4 64.5515Z" fill="#4A80AA" />
          <path id="Vector_4" d="M8.76775 67.6385V65.9131C8.76775 65.1611 9.37738 64.5515 10.1293 64.5515H1.36158C0.609627 64.5515 0 65.161 0 65.9131V67.6385C0 68.3904 0.609627 68.9999 1.36158 68.9999H10.1292C9.37724 68.9999 8.76775 68.3904 8.76775 67.6385Z" fill="#407093" />
          <g id="antina">
            <path id="Vector_5" d="M66.8894 2.41492C66.7579 1.86915 66.4825 1.35085 66.0565 0.924695C64.8236 -0.308232 62.8246 -0.308232 61.5918 0.924695L58.579 3.93756V4.31941L60.5727 6.3978C61.7614 5.16091 62.9415 3.94029 63.5484 3.3334C64.5601 2.32182 66.0378 2.31403 66.8894 2.41492Z" fill="#FFC365" />
            <g id="Group_2">
              <path id="Vector_6" d="M55.742 8.95026C55.7074 8.95026 55.6724 8.94848 55.6372 8.94507L20.8208 5.51808C20.2402 5.46094 19.8159 4.944 19.8731 4.36336C19.9302 3.78272 20.4474 3.35875 21.0278 3.41549L55.8442 6.84234C56.4247 6.89949 56.8491 7.41642 56.792 7.99706C56.7382 8.5427 56.2787 8.95026 55.742 8.95026Z" fill="#365E7D" />
            </g>
            <g id="Group_3">
              <path id="Vector_7" d="M30.8904 15.4681C30.4219 15.4681 29.9938 15.1539 29.8694 14.6795C29.7214 14.1151 30.0589 13.5377 30.6232 13.3896L55.4732 6.87154C56.0375 6.72374 56.6151 7.06103 56.763 7.6254C56.9111 8.18964 56.5737 8.76714 56.0093 8.9152L31.1592 15.4333C31.0693 15.4568 30.979 15.4681 30.8904 15.4681Z" fill="#407093" />
            </g>
            <g id="Group_4">
              <path id="Vector_8" d="M62.491 47.136C61.9539 47.136 61.4943 46.7281 61.4409 46.1823L58.0352 11.3445C57.9785 10.764 58.4031 10.2472 58.9838 10.1903C59.5644 10.1362 60.0811 10.5584 60.1378 11.139L63.5435 45.9768C63.6002 46.5573 63.1756 47.0741 62.5949 47.131C62.5601 47.1342 62.5253 47.136 62.491 47.136Z" fill="#365E7D" />
            </g>
            <g id="Group_5">
              <path id="Vector_9" d="M52.4697 37.2475C52.3802 37.2475 52.2891 37.2359 52.1984 37.212C51.6344 37.0624 51.2985 36.4841 51.448 35.9201L58.0621 10.9741C58.2115 10.41 58.7897 10.0746 59.3538 10.2236C59.9177 10.3732 60.2537 10.9515 60.1041 11.5155L53.4901 36.4615C53.3647 36.9348 52.9372 37.2475 52.4697 37.2475Z" fill="#407093" />
            </g>
            <path id="Vector_10" d="M55.5514 6.96429L58.5719 3.94376L63.0359 8.40782L60.0154 11.4284L55.5514 6.96429Z" fill="#FFC365" />
            <path id="Vector_11" d="M57.8454 9.24573C58.5714 8.48557 59.705 7.29995 60.8015 6.15999L58.5792 3.9375L55.5581 6.95843L57.8454 9.24573Z" fill="#FFA90F" />
            <g id="Group_6">
              <path id="Vector_12" d="M60.6954 13.1519C60.4251 13.1519 60.1547 13.0487 59.9485 12.8425L54.1389 7.03305C53.7263 6.62044 53.7263 5.95175 54.1389 5.53899C54.5514 5.12665 55.2202 5.12665 55.6329 5.53899L61.4424 11.3484C61.855 11.761 61.855 12.4297 61.4424 12.8425C61.2361 13.0488 60.9658 13.1519 60.6954 13.1519Z" fill="#4A80AA" />
            </g>
            <path id="Vector_13" d="M61.3772 49.0376L26.0064 13.36C21.3169 23.9466 20.5026 35.3114 24.0133 45.1115C33.7088 53.8573 48.1921 55.2003 61.5254 49.7026L61.3772 49.0376Z" fill="#B5DCFF" />
            <g id="Group_7">
              <path id="Vector_14" d="M26.1947 13.55L18.0908 5.37573L17.2787 5.45585C11.569 19.3031 13.2362 34.3917 22.9128 44.0684C23.4989 44.6545 24.1054 45.2107 24.7298 45.7383C20.6507 35.9498 21.3136 24.3077 26.1947 13.55Z" fill="#8BCAFF" />
            </g>
            <path id="Vector_15" d="M64.6095 46.5017L28.7359 10.6282C28.3829 10.6826 28.043 10.8431 27.7713 11.1149L26.2109 12.6754C25.8758 13.0105 25.7091 13.4481 25.7043 13.8874L61.4641 49.647C61.9958 50.1787 62.8578 50.1787 63.3895 49.647L64.6096 48.4271C65.1412 47.8955 65.1412 47.0334 64.6095 46.5017Z" fill="#DBEDFF" />
            <path id="Vector_16" d="M26.2648 12.7021L27.7926 11.1743C28.074 10.8929 28.4293 10.7318 28.796 10.6882L20.4797 2.37192C19.948 1.84022 19.086 1.84022 18.5542 2.37192L17.3341 3.59199C16.8024 4.12369 16.8024 4.9857 17.3341 5.5174L25.7673 13.9506C25.7562 13.5 25.9209 13.0459 26.2648 12.7021Z" fill="#B5DCFF" />
            <path id="Vector_17" d="M21.4842 39.9827C20.9747 41.0338 20.6868 42.2123 20.6868 43.459C20.6868 46.8659 22.8201 49.7721 25.8227 50.9218C27.1118 50.5179 28.2573 49.7893 29.1621 48.8301V47.0893L21.4842 39.9827Z" fill="#4A80AA" />
            <path id="Vector_18" d="M20.8212 43.4863C20.8212 42.2684 21.1028 41.1173 21.6015 40.0909L19.1472 37.8192H18.1514C16.6454 39.2399 15.704 41.2525 15.704 43.4862C15.704 47.7893 19.1922 51.2775 23.4953 51.2775C24.3916 51.2775 25.2512 51.1237 26.0523 50.8449C23.0073 49.7856 20.8212 46.8921 20.8212 43.4863Z" fill="#407093" />
            <path id="Vector_19" d="M66.0565 0.924695C64.8236 -0.308232 62.8246 -0.308232 61.5918 0.924695L58.579 3.93756V4.31941L62.3394 8.23954L63.0437 8.40223L66.0564 5.38937C67.2894 4.15658 67.2894 2.15762 66.0565 0.924695Z" fill="#FFD086" />
          </g>
        </g>
      </g>
    </g>
  </svg>