<svg class="icon-event" width="113" height="120" viewBox="0 0 113 98" fill="none" xmlns="http://www.w3.org/2000/svg">
    <g id="event">
      <path class="icon-rect" d="M113 34C113 24.0589 104.941 16 95 16L68 16C65.2386 16 63 18.2386 63 21L63 55C63 60.5228 67.4772 65 73 65L108 65C110.761 65 113 62.7614 113 60L113 34Z" fill="#FFF1DA" />
      <g id="localEvent">
        <g id="localBottom">
          <g id="Group">
            <path id="Vector" d="M47.2813 61.4469C46.4134 61.3553 45.6056 61.8017 45.1551 62.5523L43 66.1572L40.8448 62.5523C40.3942 61.7994 39.5797 61.3484 38.7186 61.4469C28.8931 62.2983 22.5454 65.9031 22.5454 70.625C22.5454 76.7797 32.8348 80 43 80C53.1651 80 63.4545 76.7797 63.4545 70.625C63.4545 65.9031 57.1068 62.2983 47.2813 61.4469ZM31.5963 29.6036L30.5044 36.3876C29.8837 40.1914 33.739 43.0887 37.0784 41.32L43 38.15L48.9215 41.3176C52.2257 43.0919 56.1195 40.2125 55.4956 36.3898L54.4036 29.6034L59.1577 24.7717C61.834 22.0514 60.3295 17.3733 56.6453 16.7975L50.049 15.7744L47.066 9.61967C45.4543 6.30545 40.5416 6.31092 38.9339 9.62202L35.9509 15.7744L29.3547 16.7975C25.6681 17.3737 24.1684 22.0514 26.8422 24.774L31.5963 29.6036Z" fill="url(#paint0_linear)" />
          </g>
        </g>
        <g id="localTop">
          <g id="Group_2">
            <path id="Vector_2" d="M43 0C29.215 0 18 11.5655 18 25.7812C18 30.5947 19.2983 35.2867 21.7486 39.3425L41.0645 71.8541C41.9532 73.3389 44.0471 73.3383 44.9353 71.8541L64.2468 39.3494C66.7017 35.2867 68 30.5947 68 25.7812C68 11.5655 56.785 0 43 0V0ZM57.5641 23.1033L51.9688 28.7864L53.2561 36.7744C53.563 38.6692 51.635 40.1284 49.9668 39.2394L43 35.5087L36.0332 39.2395C34.3582 40.1256 32.4373 38.6669 32.7439 36.7745L34.0312 28.7866L28.4359 23.1034C27.1047 21.7505 27.8447 19.4048 29.6921 19.1163L37.4558 17.9123L40.967 10.6705C41.7394 9.08203 44.2606 9.08203 45.033 10.6705L48.5442 17.9123L56.3079 19.1163C58.1529 19.4044 58.897 21.7487 57.5641 23.1033V23.1033Z" fill="url(#paint1_linear)" />
          </g>
        </g>
      </g>
    </g>
    <defs>
      <linearGradient id="paint0_linear" x1="43" y1="80" x2="43" y2="7.13655" gradientUnits="userSpaceOnUse">
        <stop stop-color="#FFF1DA" />
        <stop offset="1" stop-color="#FFFFD5" stop-opacity="0" />
      </linearGradient>
      <linearGradient id="paint1_linear" x1="43" y1="72.9675" x2="43" y2="0" gradientUnits="userSpaceOnUse">
        <stop stop-color="#FD5900" stop-opacity="0.54" />
        <stop offset="1" stop-color="#FFDE00" />
      </linearGradient>
    </defs>
</svg>